<?xml version="1.0" encoding="UTF-8"?>
<svg xmlns="http://www.w3.org/2000/svg" xmlns:xlink="http://www.w3.org/1999/xlink" viewBox="0 0 72 72" width="72px" height="72px">
<g id="surface132654044">
<path style=" stroke:none;fill-rule:nonzero;fill:rgb(0%,0%,0%);fill-opacity:1;" d="M 10.863281 21.703125 C 6.257812 23.953125 4.265625 29.730469 6.527344 34.347656 C 8.777344 38.964844 14.554688 40.945312 19.171875 38.695312 C 20.238281 38.167969 21.140625 37.453125 21.914062 36.597656 L 31.851562 40.019531 L 29.332031 47.542969 C 27.515625 47.285156 25.652344 47.554688 23.917969 48.410156 C 19.300781 50.660156 17.320312 56.4375 19.570312 61.054688 C 21.832031 65.671875 27.609375 67.652344 32.226562 65.402344 C 36.84375 63.140625 38.824219 57.363281 36.574219 52.746094 C 36.375 52.359375 36.175781 52.007812 35.941406 51.644531 L 39.082031 42.492188 L 58.957031 49.324219 L 68.671875 44.578125 L 24.398438 29.378906 C 24.304688 28.242188 24.035156 27.117188 23.519531 26.050781 C 21.257812 21.433594 15.480469 19.441406 10.863281 21.703125 Z M 13.242188 26.554688 C 15.175781 25.605469 17.707031 26.472656 18.65625 28.417969 C 19.605469 30.363281 18.738281 32.894531 16.804688 33.84375 C 14.859375 34.792969 12.328125 33.925781 11.378906 31.980469 C 10.429688 30.035156 11.296875 27.503906 13.242188 26.554688 Z M 41.15625 12.914062 L 35.578125 29.179688 L 42.808594 31.664062 L 50.871094 8.167969 Z M 36.117188 36.433594 C 36.84375 36.070312 37.570312 36.328125 37.921875 37.054688 C 38.273438 37.78125 38.027344 38.507812 37.300781 38.859375 C 36.574219 39.210938 35.847656 38.964844 35.496094 38.238281 C 35.132812 37.511719 35.390625 36.785156 36.117188 36.433594 Z M 26.296875 53.261719 C 28.230469 52.3125 30.761719 53.179688 31.710938 55.125 C 32.660156 57.070312 31.792969 59.601562 29.847656 60.550781 C 27.914062 61.5 25.382812 60.632812 24.433594 58.6875 C 23.484375 56.742188 24.351562 54.210938 26.296875 53.261719 Z M 26.296875 53.261719 "/>
</g>
</svg>
