<?xml version="1.0" encoding="UTF-8"?>
<svg xmlns="http://www.w3.org/2000/svg" xmlns:xlink="http://www.w3.org/1999/xlink" viewBox="0 0 72 72" width="72px" height="72px">
<g id="surface133464329">
<path style=" stroke:none;fill-rule:nonzero;fill:rgb(0,0,0);fill-opacity:1;" d="M 36 1 C 16.75 1 1 16.675781 1 36.179688 C 1 55.679688 16.75 71 36 71 C 55.25 71 71 55.328125 71 36.179688 C 71 17.027344 55.601562 1 36 1 Z M 33.199219 8.316406 C 37.046875 10.402344 40.546875 13.191406 43.347656 16.675781 C 44.75 15.976562 46.5 15.28125 48.25 15.28125 C 53.148438 15.28125 57 19.113281 57 23.988281 C 57 28.167969 53.851562 32 49.652344 32.699219 C 49.652344 33.746094 50 35.136719 50 36.179688 C 50 48.363281 42.996094 58.808594 33.199219 64.035156 C 19.199219 62.640625 8 50.804688 8 36.179688 C 8 21.550781 18.847656 10.054688 33.199219 8.3125 Z M 20.25 18.5 C 17.351562 18.5 15 20.851562 15 23.75 C 15 26.648438 17.351562 29 20.25 29 C 23.148438 29 25.5 26.648438 25.5 23.75 C 25.5 20.851562 23.148438 18.5 20.25 18.5 Z M 27.25 36 C 22.417969 36 18.5 39.917969 18.5 44.75 C 18.5 49.582031 22.417969 53.5 27.25 53.5 C 32.082031 53.5 36 49.582031 36 44.75 C 36 39.917969 32.082031 36 27.25 36 Z M 57 46.625 C 59.101562 46.625 60.5 48.011719 60.5 50.101562 C 60.5 52.191406 59.101562 53.589844 57 53.589844 C 54.898438 53.589844 53.5 52.191406 53.5 50.101562 C 53.5 48.011719 54.898438 46.625 57 46.625 Z M 57 46.625 "/>
</g>
</svg>
