<?xml version="1.0" encoding="UTF-8"?>
<svg xmlns="http://www.w3.org/2000/svg" xmlns:xlink="http://www.w3.org/1999/xlink" viewBox="0 0 72 72" width="72px" height="72px">
<g id="surface132970971">
<path style=" stroke:none;fill-rule:nonzero;fill:rgb(0,0,0);fill-opacity:1;" d="M 33 0 L 33 9 L 39 9 L 39 0 Z M 12.667969 8.425781 L 8.425781 12.667969 L 14.789062 19.03125 L 19.03125 14.789062 Z M 59.332031 8.425781 L 52.96875 14.789062 L 57.210938 19.03125 L 63.574219 12.667969 Z M 36 15 C 24.402344 15 15 24.402344 15 36 C 15 47.597656 24.402344 57 36 57 C 47.597656 57 57 47.597656 57 36 C 57 24.402344 47.597656 15 36 15 Z M 0 33 L 0 39 L 9 39 L 9 33 Z M 63 33 L 63 39 L 72 39 L 72 33 Z M 14.789062 52.96875 L 8.425781 59.332031 L 12.667969 63.574219 L 19.03125 57.210938 Z M 57.210938 52.96875 L 52.96875 57.210938 L 59.332031 63.574219 L 63.574219 59.332031 Z M 33 63 L 33 72 L 39 72 L 39 63 Z M 33 63 "/>
</g>
</svg>
