<?xml version="1.0" encoding="UTF-8"?>
<svg xmlns="http://www.w3.org/2000/svg" xmlns:xlink="http://www.w3.org/1999/xlink" viewBox="0 0 72 72" width="72px" height="72px">
<g id="surface40574469">
<path style=" stroke:none;fill-rule:nonzero;fill:rgb(0,0,0);fill-opacity:1;" d="M 9 6 C 5.683594 6 3 8.683594 3 12 L 3 48 C 3 51.316406 5.683594 54 9 54 L 30 54 L 30 60 L 24 60 L 24 66 L 48 66 L 48 60 L 42 60 L 42 54 L 63 54 C 66.316406 54 69 51.316406 69 48 L 69 12 C 69 8.683594 66.316406 6 63 6 Z M 9 12 L 63 12 L 63 48 L 9 48 Z M 9 12 "/>
</g>
</svg>
