<?xml version="1.0" encoding="UTF-8"?>
<svg xmlns="http://www.w3.org/2000/svg" xmlns:xlink="http://www.w3.org/1999/xlink" viewBox="0 0 72 72" width="72px" height="72px">
<g id="surface132641922">
<path style=" stroke:none;fill-rule:nonzero;fill:rgb(0%,0%,0%);fill-opacity:1;" d="M 47.4375 6.28125 C 45.550781 6.28125 36.28125 10.96875 33.09375 10.96875 C 32.308594 10.96875 23.671875 10.347656 22.875 10.59375 C 20.179688 11.425781 12.492188 20.273438 11.25 22.78125 C 10.324219 24.644531 12.410156 33.269531 11.53125 35.15625 C 10.675781 36.996094 9.011719 38.261719 8.34375 40.3125 C 7.441406 43.089844 9.84375 50.871094 8.71875 54.84375 C 7.605469 58.804688 10.289062 61.277344 14.34375 62.0625 C 15.65625 62.320312 21.855469 65.71875 25.125 65.71875 C 29.988281 65.71875 34.59375 62.203125 39.28125 61.21875 C 40.640625 60.9375 56.566406 59.15625 57.9375 56.71875 C 59.449219 54.035156 62.859375 53.777344 63.9375 50.8125 C 64.722656 48.65625 64.675781 46.335938 64.40625 43.96875 C 64.136719 41.589844 63.457031 40.464844 62.4375 38.4375 C 61.265625 36.105469 62.578125 35.671875 63.75 33.84375 C 64.476562 32.707031 62.683594 27.585938 62.15625 26.8125 C 61.769531 26.238281 62.871094 22.40625 62.8125 21.1875 C 62.707031 18.902344 61.171875 18.105469 59.34375 17.34375 C 56.941406 16.335938 56.296875 15.375 56.53125 12.9375 C 57.023438 7.722656 47.4375 6.28125 47.4375 6.28125 Z M 46.03125 12.84375 C 46.03125 12.84375 48.867188 13.652344 49.5 13.875 C 49.980469 15.503906 50.167969 17.460938 50.0625 18.75 C 49.957031 19.921875 51.457031 23.71875 51.46875 24.9375 C 51.492188 27.820312 48.796875 30.128906 49.78125 33 C 50.648438 35.542969 51.082031 37.582031 48 38.90625 C 46.886719 39.386719 43.054688 41.226562 41.53125 41.53125 C 39.210938 41.988281 37.007812 43.054688 37.03125 45.65625 C 37.042969 47.074219 34.675781 50.964844 33.46875 51.09375 C 32.542969 51.199219 29.4375 50.226562 28.59375 50.71875 C 25.78125 52.371094 21.046875 56.671875 17.625 54.5625 C 16.523438 53.882812 15.902344 53.003906 15.28125 52.03125 C 15.527344 50.484375 14.167969 41.988281 14.4375 41.15625 C 14.566406 40.757812 15.011719 40.171875 15.46875 39.5625 C 16.007812 38.835938 16.628906 37.957031 17.15625 36.84375 C 18.398438 34.195312 17.085938 25.136719 17.15625 24.75 C 17.25 24.632812 23.566406 16.886719 24.28125 16.78125 C 24.761719 16.710938 32.25 17.15625 33.09375 17.15625 C 36.984375 17.15625 45.539062 13.042969 46.03125 12.84375 Z M 40.5 21.1875 C 38.976562 21.222656 36.867188 23.179688 36.1875 23.625 C 35.226562 24.257812 33.527344 24.445312 32.71875 25.21875 C 31.710938 27.667969 33.292969 29.542969 33.46875 30.84375 C 33.726562 32.636719 32.179688 36.140625 35.25 36.28125 C 36.761719 36.351562 37.59375 34.933594 38.53125 34.03125 C 39.445312 33.152344 43.699219 31.675781 43.6875 30.75 C 44.4375 29.308594 43.546875 26.355469 42.84375 25.78125 C 41.355469 24.5625 43.054688 22.125 41.15625 21.28125 C 40.96875 21.199219 40.722656 21.1875 40.5 21.1875 Z M 23.90625 36.28125 C 22.757812 36.28125 22.417969 38.566406 22.125 39.09375 C 21.808594 39.65625 18.832031 41.132812 20.0625 42.65625 C 22.265625 45.363281 25.617188 47.085938 26.0625 45.09375 C 26.519531 43.03125 29.71875 41.625 28.78125 40.125 C 27.433594 37.945312 26.003906 36.28125 23.90625 36.28125 Z M 23.90625 36.28125 "/>
</g>
</svg>
